# xmcd
#
# Track frame offsets:
#	150
#	14042
#	25385
#	37537
#	48990
#	59210
#	70615
#	81074
#	93592
#	103458
#	115598
#	125511
#	138562
#	148012
#	160557
#	170263
#	183338
#	196875
#	207702
#	216854
#	228817
#	242274
#	258939
#	270822
#	282587
#
# Disc length: 3902 seconds
#
# Revision: 1
# Processed by: cddbd v1.4PL0 Copyright (c) Steve Scherf et al.
# Submitted via: audiograbber 1.81.03
#
DISCID=630f3c19
DTITLE=Patsy Cline - 25 Greatest Hits
DYEAR=1900
DGENRE=Country
TTITLE0=A Church, A Courtroom And Then Goodbye
TTITLE1=I've Loved And Lost Again
TTITLE2=A Poor Man's Roses
TTITLE3=Walkin' After Midnight
TTITLE4=Three Cigarettes In An Ashtray
TTITLE5=In Care Of The Blues
TTITLE6=Gotta Lot Of Rhythm In My Soul
TTITLE7=Just A Closer Walk With Thee
TTITLE8=I Love You So Much It Hurts
TTITLE9=Crazy
TTITLE10=Strange
TTITLE11=Imagine That
TTITLE12=True Love
TTITLE13=I Fall To Pieces
TTITLE14=Lovin' In Vain
TTITLE15=I Can't Help It (If I'm Still In Love With You)
TTITLE16=So Wrong
TTITLE17=Leavin' On Your Mind
TTITLE18=Back In Baby's Arms
TTITLE19=Always
TTITLE20=She's Got You
TTITLE21=Faded Love
TTITLE22=He Called Me Baby
TTITLE23=Sweet Dreams Of You
TTITLE24=There He Goes
EXTD=
EXTT0=
EXTT1=
EXTT2=
EXTT3=
EXTT4=
EXTT5=
EXTT6=
EXTT7=
EXTT8=
EXTT9=
EXTT10=
EXTT11=
EXTT12=
EXTT13=
EXTT14=
EXTT15=
EXTT16=
EXTT17=
EXTT18=
EXTT19=
EXTT20=
EXTT21=
EXTT22=
EXTT23=
EXTT24=
PLAYORDER=
